<svg xmlns="http://www.w3.org/2000/svg" viewBox="0 0 781.31 1053.27"><defs><style>.cls-1{fill:#424242;}.cls-2{fill:#b24726;}.cls-3,.cls-9{fill:#f26d3d;}.cls-3,.cls-4{stroke:#f7f3df;stroke-miterlimit:10;stroke-width:1.17px;}.cls-4{fill:none;}.cls-5{fill:#ad322b;}.cls-6{fill:#f24738;}.cls-7{fill:#ba713a;}.cls-8{fill:#f2a35e;}</style></defs><g id="Layer_2" data-name="Layer 2"><g id="Layer_1-2" data-name="Layer 1"><rect class="cls-1" x="591.88" y="393.16" width="18.38" height="660.11"/><rect class="cls-1" x="441.52" y="150.35" width="18.38" height="902.91"/><rect class="cls-1" x="39.44" y="207.06" width="18.38" height="846.21"/><polygon class="cls-2" points="328.32 862.94 576.83 442.94 328.32 3.22 781.31 442.94 328.32 862.94"/><polygon class="cls-3" points="328.32 862.94 558.75 433.08 328.32 3.22 758.18 433.08 328.32 862.94"/><polyline class="cls-4" points="328.32 3.22 682.49 433.08 328.32 862.94"/><polyline class="cls-4" points="328.32 3.22 625.1 433.08 328.32 862.94"/><path class="cls-5" d="M487.7,195.61a83.28,83.28,0,0,0-10.82-34.46c-15.81-26.9-46.41-41-76.37-43.7s-59.83,4.48-89.13,11.58c-2.51-18.51-15.91-33.81-31.59-42.62s-33.54-12.14-51.1-15.08c-37.22-6.23-77.13-10.88-111.11,6.28-26.16,13.21-46,39.26-53,68.82-1.75,7.4-2.73,11.8-7.09,18-5.11,7.29-10.2,14.6-15,22.14-9.47,15-17.9,30.82-23,48-8.52,28.48-6.78,62.18,11.62,84.92,14,17.28,35.67,26,57.14,28.22s43.06-1.35,64.36-4.91l71.1-11.89c16.56-2.77,33.26-5.55,50-4.86,22.74.92,45.17,8.21,67.88,6.57,25.22-1.83,48.43-14.46,70.8-26.84,13.86-7.67,27.83-15.41,39.87-25.94,16.15-14.13,28.5-33.36,33.47-54.83A93,93,0,0,0,487.7,195.61Z"/><path class="cls-6" d="M473.16,189.2a76.48,76.48,0,0,0-10.82-32.76c-15.81-25.57-46.41-39-76.37-41.54s-59.83,4.26-89.13,11c-2.5-17.6-15.91-32.15-31.59-40.52s-33.54-11.54-51.1-14.34C176.93,65.12,137,60.71,103,77c-26.16,12.56-46,37.33-53,65.43-1.75,7-2.73,11.22-7.09,17.12-5.11,6.93-10.2,13.89-15,21.05-9.47,14.22-17.89,29.3-23,45.66C-3.6,253.35-1.86,285.39,16.54,307c14,16.43,35.67,24.71,57.14,26.83s43.06-1.28,64.36-4.67l71.1-11.3c16.56-2.64,33.26-5.28,50-4.63,22.74.88,45.17,7.81,67.88,6.25,25.22-1.74,48.43-13.75,70.81-25.52,13.85-7.29,27.82-14.65,39.86-24.66,16.15-13.43,28.51-31.72,33.47-52.13A84.15,84.15,0,0,0,473.16,189.2Z"/><rect class="cls-7" x="14.54" y="379.7" width="482.75" height="106.75"/><rect class="cls-7" x="14.54" y="582.66" width="482.75" height="106.75"/><rect class="cls-8" x="14.54" y="379.7" width="473.56" height="106.75"/><rect class="cls-8" x="14.54" y="582.66" width="473.56" height="106.75"/><polygon class="cls-2" points="319.77 582.66 199.26 582.66 228.06 534.55 199.26 486.45 319.77 486.45 290.97 534.55 319.77 582.66"/><polygon class="cls-9" points="313.61 582.66 193.1 582.66 221.9 534.55 193.1 486.45 313.61 486.45 284.81 534.55 313.61 582.66"/></g></g></svg>